<svg id="Layer_1" data-name="Layer 1" xmlns="http://www.w3.org/2000/svg" xmlns:xlink="http://www.w3.org/1999/xlink" viewBox="0 0 617 87">
  <defs>
    <style>
      .cls-1 {
        fill: #fff;
        fill-rule: evenodd;
      }

      .cls-2 {
        mask: url(#mask);
      }

      .cls-3 {
        mask: url(#mask-2-2);
      }

      .cls-4 {
        mask: url(#mask-3);
      }

      .cls-5 {
        mask: url(#mask-4-2);
      }

      .cls-6 {
        mask: url(#mask-5);
      }
    </style>
    <mask id="mask" x="0.8903" y="23.7504" width="54.844" height="62.511" maskUnits="userSpaceOnUse">
      <g id="mask-2">
        <polygon id="path-1" class="cls-1" points="0.89 23.75 55.734 23.75 55.734 86.261 0.89 86.261 0.89 23.75"/>
      </g>
    </mask>
    <mask id="mask-2-2" x="135.0554" y="24.8742" width="60.782" height="61.387" maskUnits="userSpaceOnUse">
      <g id="mask-4">
        <polygon id="path-3" class="cls-1" points="135.055 24.874 195.837 24.874 195.837 86.261 135.055 86.261 135.055 24.874"/>
      </g>
    </mask>
    <mask id="mask-3" x="294.4406" y="0.5103" width="19.715" height="16.101" maskUnits="userSpaceOnUse">
      <g id="mask-6">
        <polygon id="path-5" class="cls-1" points="294.441 0.513 314.156 0.513 314.156 16.611 294.441 16.611 294.441 0.513"/>
      </g>
    </mask>
    <mask id="mask-4-2" x="376.6855" y="24.8742" width="60.784" height="61.387" maskUnits="userSpaceOnUse">
      <g id="mask-8">
        <polygon id="path-7" class="cls-1" points="376.686 24.874 437.47 24.874 437.47 86.261 376.686 86.261 376.686 24.874"/>
      </g>
    </mask>
    <mask id="mask-5" x="560.2811" y="24.8724" width="55.963" height="60.268" maskUnits="userSpaceOnUse">
      <g id="mask-10">
        <polygon id="path-9" class="cls-1" points="560.281 24.872 616.244 24.872 616.244 85.14 560.281 85.14 560.281 24.872"/>
      </g>
    </mask>
  </defs>
  <title>Artboard 1</title>
  <g id="Page-1">
    <g id="CN_LOGOS" data-name="CN LOGOS">
      <g id="Group-29">
        <g id="Group-6">
          <g class="cls-2">
            <path id="Fill-4" class="cls-1" d="M46.5213,79.8044a19.8094,19.8094,0,0,1-13.002,5.167c-15.41-.088-18.943-13.001-18.943-29.966,0-16.961,3.274-29.96,18.686-29.96a17.4773,17.4773,0,0,1,12.485,5.252l8.522,14.034h.517V24.6144h-.517l-8.008,4.133a20.5231,20.5231,0,0,0-12.999-4.997C18.4533,23.75.89,35.1154.89,55.0054s17.219,31.256,32.629,31.256a22.2056,22.2056,0,0,0,13.432-4.994l8.265,4.132h.518V64.8214h-.518Z"/>
          </g>
        </g>
        <path id="Fill-7" class="cls-1" d="M96.5553,23.7522c-14.463,0-31.598,12.226-31.598,31.255s17.135,31.252,31.598,31.252c14.465,0,31.599-12.223,31.599-31.252s-17.134-31.255-31.599-31.255m0,61.215c-14.723,0-18.078-12.136-18.078-29.96,0-17.822,3.355-29.96,18.078-29.96,14.725,0,18.082,12.138,18.082,29.96,0,17.824-3.357,29.96-18.082,29.96"/>
        <g id="Group-11">
          <g class="cls-3">
            <polygon id="Fill-9" class="cls-1" points="178.876 24.874 178.876 25.904 186.625 25.904 186.625 64.22 186.453 64.22 158.901 24.874 135.055 24.874 135.055 25.904 142.888 25.904 142.888 84.108 135.055 84.108 135.055 85.143 152.1 85.143 152.1 84.108 144.267 84.108 144.267 25.904 144.437 25.904 187.657 86.261 188.087 86.261 188.087 25.904 195.837 25.904 195.837 24.874 178.876 24.874"/>
          </g>
        </g>
        <path id="Fill-12" class="cls-1" d="M229.4258,24.8724H202.65v1.032h7.748v58.202H202.65V85.14h26.776c13.342,0,36.074-5.767,36.074-30.478s-22.732-29.79-36.074-29.79m-.256,59.234h-6.546V25.9044h6.546c15.755,0,22.986,10.765,22.986,29.104s-7.231,29.098-22.986,29.098"/>
        <path id="Fill-14" class="cls-1" d="M315.1909,84.1078h-22.818V53.3708h11.453c3.785,3.013,8.18,11.71,8.18,11.71h.513V40.5428h-.513s-4.395,8.694-8.18,11.711h-11.453V25.9068H312.78c5.94,3.874,11.109,15.154,11.109,15.154h.511V24.8738h-52.002v1.033h7.75v58.201h-7.75v1.035h53.727V64.91h-.516s-5.165,13.428-10.418,19.198"/>
        <g id="Group-18">
          <g class="cls-4">
            <polygon id="Fill-16" class="cls-1" points="313.553 0.51 294.441 16.266 294.612 16.611 314.156 12.05 312.607 7.83 313.9 0.772 313.553 0.51"/>
          </g>
        </g>
        <g id="Group-21">
          <g class="cls-5">
            <polygon id="Fill-19" class="cls-1" points="420.509 24.874 420.509 25.904 428.261 25.904 428.261 64.22 428.089 64.22 400.535 24.874 376.686 24.874 376.686 25.904 384.519 25.904 384.519 84.108 376.686 84.108 376.686 85.143 393.732 85.143 393.732 84.108 385.899 84.108 385.899 25.904 386.071 25.904 429.292 86.261 429.72 86.261 429.72 25.904 437.47 25.904 437.47 24.874 420.509 24.874"/>
          </g>
        </g>
        <path id="Fill-22" class="cls-1" d="M469.5983,22.8079l-26.087,61.298H436.36v1.037h16.188v-1.037h-7.575l9.646-22.814h19.63l10.157,22.814h-7.831v1.037h28.326v-1.037h-7.236L470.03,22.8079Zm-5.424,15.929,9.561,21.522h-18.688Z"/>
        <path id="Fill-24" class="cls-1" d="M539.9511,49.7539l-11.883-4.046c-5.939-1.979-10.76-4.907-10.76-10.593,0-6.452,5.164-10.069,13.089-10.069,4.906,0,8.007,1.291,10.933,4.045l8.436,13.862h.517V23.8389h-.517l-8.005,3.961a16.7856,16.7856,0,0,0-11.364-3.961c-11.452,0-19.031,7.49-19.111,17.993.08,8.527,6.022,12.919,12.823,15.415l12.145,4.39c6.369,2.322,10.759,5.079,10.759,11.45,0,5.941-3.965,11.884-14.463,11.97-4.908-.086-10.505-2.067-13.779-5.252l-9.124-15.239h-.518L509.56,85.4h.517l8.18-4.389a24.0947,24.0947,0,0,0,14.293,5.25c13.168,0,21.781-9.3,21.781-19.456.086-9.989-6.885-14.553-14.38-17.051"/>
        <g id="Group-28">
          <g class="cls-6">
            <path id="Fill-26" class="cls-1" d="M560.2811,24.8724v18.684h.517s5.597-11.883,10.85-17.652H582.15v58.202h-9.472V85.14h31.167v-1.034H594.38V25.9044h10.502c5.252,5.769,10.848,17.652,10.848,17.652h.514V24.8724Z"/>
          </g>
        </g>
      </g>
    </g>
  </g>
</svg>
